<svg width="46" height="46" viewBox="0 0 46 46" fill="none" xmlns="http://www.w3.org/2000/svg">
<g filter="url(#filter0_iii_0_1595)">
<path d="M33.4328 15.7468C38.6199 16.943 42.125 21.064 42.125 26.7494C42.125 33.3492 37.4015 37.841 30.8066 38.0964C28.4113 38.1892 25.5063 38.2494 22 38.2494C18.4937 38.2493 15.5887 38.1892 13.1934 38.0964C6.59846 37.841 1.875 33.3492 1.875 26.7493C1.875 21.064 5.38009 16.943 10.5672 15.7468C11.1309 9.88812 15.2035 5.71179 21.3126 5.66843C21.5371 5.66683 21.7662 5.66602 22 5.66602C22.2338 5.66602 22.4629 5.66683 22.6874 5.66843C28.7965 5.7118 32.8691 9.88812 33.4328 15.7468Z" fill="#D0E2F3"/>
</g>
<g filter="url(#filter1_i_0_1595)">
<path fill-rule="evenodd" clip-rule="evenodd" d="M17.5025 17.4841C15.9609 18.5674 14.0137 20.1791 12.6801 22.1474C12.029 23.1085 12.6572 24.2989 13.8097 24.4381C14.8726 24.5665 15.7914 24.6307 15.7914 24.6307L16.1088 31.2437C16.148 32.0596 16.4017 32.9249 17.1943 33.1227C17.4283 33.1811 17.7114 33.2188 18.0524 33.2188C18.4665 33.2188 18.7954 33.1631 19.0545 33.0824C19.7419 32.8682 19.9729 32.1164 20.0247 31.3982C20.174 29.3257 20.4328 24.4985 20.1332 18.8323C20.0611 17.4681 18.6202 16.6987 17.5025 17.4841ZM25.9153 33.1409C27.457 32.0577 29.4042 30.446 30.7377 28.4777C31.3888 27.5166 30.7606 26.3262 29.6081 26.187C28.5452 26.0586 27.6264 25.9944 27.6264 25.9944L27.309 19.3814C27.2698 18.5655 27.0161 17.7001 26.2236 17.5024C25.9896 17.444 25.7064 17.4063 25.3655 17.4063C24.9513 17.4063 24.6225 17.462 24.3634 17.5427C23.6759 17.7569 23.4449 18.5087 23.3932 19.2269C23.2438 21.2994 22.985 26.1266 23.2846 31.7928C23.3567 33.157 24.7976 33.9263 25.9153 33.1409Z" fill="url(#paint0_linear_0_1595)"/>
</g>
<g filter="url(#filter2_i_0_1595)">
<path fill-rule="evenodd" clip-rule="evenodd" d="M42.1779 37.6678C42.7859 36.6969 43.1374 35.5488 43.1374 34.3187C43.1374 30.829 40.3084 28 36.8187 28C33.329 28 30.5 30.829 30.5 34.3187C30.5 37.8084 33.329 40.6374 36.8187 40.6374C38.0455 40.6374 39.1906 40.2878 40.1598 39.6828C40.2149 39.7491 40.2699 39.8153 40.3247 39.8813C40.741 40.3827 41.1519 40.8776 41.595 41.3666C42.2595 42.1 43.2782 42.1795 43.9787 41.4803C44.6792 40.7811 44.5995 39.7641 43.8648 39.1008C43.3749 38.6584 42.8792 38.2482 42.3769 37.8326C42.3107 37.7778 42.2443 37.7229 42.1779 37.6678Z" fill="url(#paint1_linear_0_1595)"/>
</g>
<g filter="url(#filter3_iii_0_1595)">
<circle cx="36.8574" cy="34.457" r="3.9375" fill="#D0E2F3"/>
</g>
<defs>
<filter id="filter0_iii_0_1595" x="0.875" y="3.66602" width="42.25" height="35.583" filterUnits="userSpaceOnUse" color-interpolation-filters="sRGB">
<feFlood flood-opacity="0" result="BackgroundImageFix"/>
<feBlend mode="normal" in="SourceGraphic" in2="BackgroundImageFix" result="shape"/>
<feColorMatrix in="SourceAlpha" type="matrix" values="0 0 0 0 0 0 0 0 0 0 0 0 0 0 0 0 0 0 127 0" result="hardAlpha"/>
<feOffset dx="1" dy="1"/>
<feGaussianBlur stdDeviation="1"/>
<feComposite in2="hardAlpha" operator="arithmetic" k2="-1" k3="1"/>
<feColorMatrix type="matrix" values="0 0 0 0 0.534167 0 0 0 0 0.645967 0 0 0 0 0.749167 0 0 0 0.6 0"/>
<feBlend mode="normal" in2="shape" result="effect1_innerShadow_0_1595"/>
<feColorMatrix in="SourceAlpha" type="matrix" values="0 0 0 0 0 0 0 0 0 0 0 0 0 0 0 0 0 0 127 0" result="hardAlpha"/>
<feOffset dx="-1" dy="-2"/>
<feGaussianBlur stdDeviation="1"/>
<feComposite in2="hardAlpha" operator="arithmetic" k2="-1" k3="1"/>
<feColorMatrix type="matrix" values="0 0 0 0 0.533333 0 0 0 0 0.647059 0 0 0 0 0.74902 0 0 0 0.3 0"/>
<feBlend mode="normal" in2="effect1_innerShadow_0_1595" result="effect2_innerShadow_0_1595"/>
<feColorMatrix in="SourceAlpha" type="matrix" values="0 0 0 0 0 0 0 0 0 0 0 0 0 0 0 0 0 0 127 0" result="hardAlpha"/>
<feOffset dx="-1" dy="-2"/>
<feGaussianBlur stdDeviation="1.5"/>
<feComposite in2="hardAlpha" operator="arithmetic" k2="-1" k3="1"/>
<feColorMatrix type="matrix" values="0 0 0 0 1 0 0 0 0 1 0 0 0 0 1 0 0 0 0.4 0"/>
<feBlend mode="screen" in2="effect2_innerShadow_0_1595" result="effect3_innerShadow_0_1595"/>
</filter>
<filter id="filter1_i_0_1595" x="12.4175" y="17.1689" width="19.9357" height="17.6401" filterUnits="userSpaceOnUse" color-interpolation-filters="sRGB">
<feFlood flood-opacity="0" result="BackgroundImageFix"/>
<feBlend mode="normal" in="SourceGraphic" in2="BackgroundImageFix" result="shape"/>
<feColorMatrix in="SourceAlpha" type="matrix" values="0 0 0 0 0 0 0 0 0 0 0 0 0 0 0 0 0 0 127 0" result="hardAlpha"/>
<feOffset dx="1.35294" dy="1.35294"/>
<feGaussianBlur stdDeviation="0.676471"/>
<feComposite in2="hardAlpha" operator="arithmetic" k2="-1" k3="1"/>
<feColorMatrix type="matrix" values="0 0 0 0 0 0 0 0 0 0.37028 0 0 0 0 0.74056 0 0 0 0.5 0"/>
<feBlend mode="multiply" in2="shape" result="effect1_innerShadow_0_1595"/>
</filter>
<filter id="filter2_i_0_1595" x="30.5" y="28" width="15.3153" height="15.3158" filterUnits="userSpaceOnUse" color-interpolation-filters="sRGB">
<feFlood flood-opacity="0" result="BackgroundImageFix"/>
<feBlend mode="normal" in="SourceGraphic" in2="BackgroundImageFix" result="shape"/>
<feColorMatrix in="SourceAlpha" type="matrix" values="0 0 0 0 0 0 0 0 0 0 0 0 0 0 0 0 0 0 127 0" result="hardAlpha"/>
<feOffset dx="1.35294" dy="1.35294"/>
<feGaussianBlur stdDeviation="0.676471"/>
<feComposite in2="hardAlpha" operator="arithmetic" k2="-1" k3="1"/>
<feColorMatrix type="matrix" values="0 0 0 0 0 0 0 0 0 0.37028 0 0 0 0 0.74056 0 0 0 0.5 0"/>
<feBlend mode="multiply" in2="shape" result="effect1_innerShadow_0_1595"/>
</filter>
<filter id="filter3_iii_0_1595" x="31.9199" y="28.5195" width="9.875" height="10.875" filterUnits="userSpaceOnUse" color-interpolation-filters="sRGB">
<feFlood flood-opacity="0" result="BackgroundImageFix"/>
<feBlend mode="normal" in="SourceGraphic" in2="BackgroundImageFix" result="shape"/>
<feColorMatrix in="SourceAlpha" type="matrix" values="0 0 0 0 0 0 0 0 0 0 0 0 0 0 0 0 0 0 127 0" result="hardAlpha"/>
<feOffset dx="1" dy="1"/>
<feGaussianBlur stdDeviation="1"/>
<feComposite in2="hardAlpha" operator="arithmetic" k2="-1" k3="1"/>
<feColorMatrix type="matrix" values="0 0 0 0 0.534167 0 0 0 0 0.645967 0 0 0 0 0.749167 0 0 0 0.6 0"/>
<feBlend mode="normal" in2="shape" result="effect1_innerShadow_0_1595"/>
<feColorMatrix in="SourceAlpha" type="matrix" values="0 0 0 0 0 0 0 0 0 0 0 0 0 0 0 0 0 0 127 0" result="hardAlpha"/>
<feOffset dx="-1" dy="-2"/>
<feGaussianBlur stdDeviation="1"/>
<feComposite in2="hardAlpha" operator="arithmetic" k2="-1" k3="1"/>
<feColorMatrix type="matrix" values="0 0 0 0 0.533333 0 0 0 0 0.647059 0 0 0 0 0.74902 0 0 0 0.3 0"/>
<feBlend mode="normal" in2="effect1_innerShadow_0_1595" result="effect2_innerShadow_0_1595"/>
<feColorMatrix in="SourceAlpha" type="matrix" values="0 0 0 0 0 0 0 0 0 0 0 0 0 0 0 0 0 0 127 0" result="hardAlpha"/>
<feOffset dx="-1" dy="-2"/>
<feGaussianBlur stdDeviation="1.5"/>
<feComposite in2="hardAlpha" operator="arithmetic" k2="-1" k3="1"/>
<feColorMatrix type="matrix" values="0 0 0 0 1 0 0 0 0 1 0 0 0 0 1 0 0 0 0.4 0"/>
<feBlend mode="screen" in2="effect2_innerShadow_0_1595" result="effect3_innerShadow_0_1595"/>
</filter>
<linearGradient id="paint0_linear_0_1595" x1="13.2934" y1="17.1689" x2="33.5187" y2="26.5703" gradientUnits="userSpaceOnUse">
<stop stop-color="#0050EC"/>
<stop offset="1" stop-color="#39C7EC"/>
</linearGradient>
<linearGradient id="paint1_linear_0_1595" x1="31.1581" y1="28" x2="47.0076" y2="34.4569" gradientUnits="userSpaceOnUse">
<stop stop-color="#0050EC"/>
<stop offset="1" stop-color="#39C7EC"/>
</linearGradient>
</defs>
</svg>
