<svg width="70" height="19" viewBox="0 0 70 19" fill="none" xmlns="http://www.w3.org/2000/svg">
<path d="M6.71175 1.69626H8.23438C9.16165 1.55966 10.1086 1.67976 10.9724 2.04353C12.0562 2.69553 12.8422 3.74519 13.1629 4.96858C13.39 5.60969 13.39 5.60969 13.9376 5.38263H14.365V0.307197H0.0335477V1.20208H0.621229C0.87661 1.20031 1.12914 1.25578 1.36027 1.36441C1.59141 1.47304 1.79526 1.63207 1.95687 1.82983C2.50448 2.71135 2.59798 3.69972 2.59798 8.84194C2.59798 14.3047 2.47777 15.6403 1.95687 16.3215C1.82827 16.4966 1.66178 16.6404 1.46982 16.7422C1.27786 16.844 1.0654 16.9011 0.848288 16.9092C0.0335478 17.0561 0.0335477 17.0428 0.0335477 17.4034C-0.0115081 17.524 -0.0115081 17.6568 0.0335477 17.7774H9.07583C9.13567 17.6594 9.16686 17.529 9.16686 17.3967C9.16686 17.2644 9.13567 17.134 9.07583 17.0161C8.85682 16.9551 8.63361 16.9105 8.40801 16.8825C8.16396 16.8535 7.92272 16.8043 7.68677 16.7356C7.34887 16.4889 7.0812 16.1583 6.9102 15.7765C6.7392 15.3947 6.6708 14.9748 6.71175 14.5585C6.57819 13.677 6.5114 12.0608 6.5114 10.7252V9.67004H7.04566C7.71128 9.64967 8.37652 9.72159 9.02241 9.88374C9.33183 10.0749 9.59523 10.3321 9.79378 10.6369C9.99234 10.9416 10.1212 11.2865 10.1711 11.6468L10.2913 12.0608H11.106V6.14395H10.358L10.2378 6.71827C10.1873 7.08673 10.051 7.43818 9.83986 7.74439C9.62877 8.05059 9.34878 8.30299 9.02241 8.48132C8.70633 8.57538 8.37334 8.59819 8.04739 8.5481H6.5114V7.10561C6.5114 5.60969 6.59154 2.45758 6.64497 1.96339L6.71175 1.69626ZM69.2197 12.2879C68.5884 11.2718 67.6037 10.5249 66.4549 10.1909C65.5743 9.91566 64.7602 9.46089 64.0641 8.8553C63.9075 8.70379 63.7903 8.51625 63.7228 8.30905C63.6553 8.10185 63.6395 7.88128 63.6768 7.66658C63.6778 7.24543 63.846 6.84191 64.1443 6.54464C64.3465 6.33288 64.6024 6.18003 64.8847 6.1024C65.1669 6.02477 65.465 6.02528 65.747 6.10388C66.3309 6.27028 66.8589 6.59153 67.2751 7.03358C67.6913 7.47563 67.9802 8.02203 68.1111 8.61488C68.3248 9.21592 68.3515 9.21592 68.7389 9.05564L68.9793 8.96215V5.6364L68.8057 5.55626C67.4907 5.09444 66.0959 4.90362 64.7052 4.99529C63.5077 5.02564 62.3645 5.50194 61.4997 6.33094C61.1075 6.69809 60.8003 7.14654 60.5996 7.64488C60.3988 8.14322 60.3095 8.67941 60.3377 9.21592C60.3452 10.0362 60.6708 10.8215 61.2459 11.4064C61.8815 12.0314 62.6614 12.4902 63.5165 12.742C65.5868 13.5567 66.1878 14.0776 66.1878 15.026C66.1967 15.4259 66.0693 15.8169 65.8266 16.1348C65.5839 16.4528 65.2403 16.6788 64.8522 16.7756C64.3858 16.8781 63.9028 16.8781 63.4364 16.7756C62.8258 16.5387 62.2806 16.1593 61.8462 15.6691C61.4117 15.1789 61.1006 14.5921 60.9387 13.9574L60.7651 13.53H60.5247C60.4098 13.5386 60.297 13.5656 60.1908 13.6102H60.0572V17.4034H60.2843C61.1866 17.7036 62.1176 17.9095 63.0624 18.0178H64.398C64.9773 18.0603 65.5596 18.0061 66.121 17.8575C66.8338 17.726 67.4998 17.4102 68.0528 16.9416C68.6058 16.473 69.0265 15.8678 69.2731 15.1862C69.4325 14.8055 69.5143 14.3969 69.5136 13.9842C69.5662 13.4027 69.4648 12.8177 69.2197 12.2879ZM56.638 5.38263C55.8376 5.0466 54.9752 4.88359 54.1074 4.90431C53.2397 4.92502 52.386 5.129 51.6026 5.50284C50.8662 5.86304 50.2136 6.37365 49.6867 7.00171C49.1599 7.62977 48.7706 8.36132 48.544 9.14914C48.2551 10.0085 48.1327 10.9152 48.1834 11.8204C48.1738 12.313 48.2141 12.8052 48.3036 13.2896C48.5193 14.4808 49.0943 15.5773 49.9515 16.4321C50.8086 17.2869 51.9068 17.8588 53.0985 18.0712C53.8746 18.169 54.6599 18.169 55.4359 18.0712C56.2412 17.9293 57.0119 17.6346 57.7065 17.203C58.281 16.881 58.7673 16.4222 59.1223 15.8674C59.0995 15.7804 59.0594 15.6988 59.0043 15.6277C58.9492 15.5565 58.8803 15.4972 58.8017 15.4534C58.6493 15.5086 58.5054 15.585 58.3743 15.6804C57.71 16.1182 56.9255 16.3377 56.1304 16.3082C55.6027 16.3438 55.0737 16.2617 54.5816 16.0676C54.0896 15.8736 53.6468 15.5725 53.2855 15.1862C53.006 14.9266 52.7753 14.619 52.6044 14.278C52.1893 13.4477 51.9657 12.5349 51.9499 11.6067V11.0858H59.3493V10.8187C59.3657 10.5518 59.3657 10.2842 59.3493 10.0173C59.3467 9.07421 59.0944 8.14863 58.6182 7.3346C58.142 6.52057 57.4588 5.8471 56.638 5.38263ZM52.9115 10.0039H51.9766V9.21592C52.2838 7.1991 53.0451 5.99703 53.9801 5.99703C54.915 5.99703 55.3157 7.18575 55.4893 9.36284V9.97723H54.6879L52.9115 10.0039ZM33.705 4.94187C33.2435 4.92397 32.7847 5.02032 32.3694 5.22235C31.4667 5.66075 30.7376 6.38988 30.2992 7.2926L30.1255 7.61315V4.94187H30.0587C29.8985 4.94187 24.9566 5.93024 24.7963 5.99703C24.636 6.06381 24.6895 6.07716 24.6895 6.31758C24.6895 6.55799 24.6895 6.59806 24.7963 6.61142L25.3172 6.71827C25.4631 6.72185 25.6063 6.75858 25.7359 6.82569C25.8654 6.8928 25.9781 6.98852 26.0652 7.10561C26.3991 7.54637 26.4659 8.32104 26.4659 11.6201C26.5318 13.1052 26.4693 14.5934 26.2789 16.0678C26.2341 16.2901 26.1213 16.493 25.9562 16.6485C25.7912 16.804 25.5819 16.9044 25.3573 16.9359L24.9032 17.0294H24.7295V17.4034C24.6811 17.528 24.6811 17.6662 24.7295 17.7907H32.1958V17.4034C32.2217 17.2756 32.2217 17.1439 32.1958 17.0161C31.7462 16.9985 31.2992 16.9404 30.8601 16.8424C30.621 16.7174 30.4254 16.5228 30.2991 16.2844C30.1727 16.046 30.1215 15.7749 30.1522 15.5068C30.0454 14.7321 29.992 12.4615 30.0187 10.7252C30.0454 8.98886 30.0187 8.88201 30.1656 8.7618C30.6125 8.41912 31.1656 8.24422 31.7283 8.26761C32.2587 8.27918 32.7795 8.41166 33.2509 8.65495C33.4144 8.74571 33.5897 8.81314 33.7718 8.8553C33.7718 8.8553 35.1075 5.62305 35.1075 5.47613C34.9365 5.27751 34.7188 5.12464 34.4739 5.03136C34.2291 4.93808 33.9648 4.90732 33.705 4.94187ZM24.7028 10.5516C24.6562 9.59712 24.3822 8.66763 23.9036 7.84054C23.425 7.01345 22.7557 6.3127 21.9514 5.79668C20.9956 5.28105 19.9322 4.99674 18.8467 4.96659C17.7611 4.93643 16.6835 5.16127 15.7006 5.62305C14.3109 6.35589 13.2616 7.60164 12.7756 9.09571C12.2736 10.7685 12.2736 12.5518 12.7756 14.2246C13.0387 15.1388 13.5306 15.9708 14.2047 16.6421C15.0443 17.4613 16.1269 17.9862 17.29 18.138C18.0367 18.2004 18.7872 18.2004 19.5339 18.138C19.8087 18.0962 20.0807 18.0382 20.3486 17.9644C21.4358 17.6602 22.4139 17.0528 23.1684 16.2131C23.9229 15.3734 24.4227 14.3362 24.6093 13.2228C24.7427 12.3389 24.774 11.4426 24.7028 10.5516ZM19.1466 17.2298C17.8109 17.6305 16.8092 16.3349 16.4753 13.6102C16.3527 12.1837 16.3527 10.7493 16.4753 9.32277C16.7424 7.13232 17.4236 6.02374 18.4787 6.02374C18.6916 6.01055 18.9046 6.04853 19.0998 6.1345C19.295 6.22048 19.4667 6.35195 19.6007 6.51792C20.4956 7.4128 20.9363 9.18921 20.9363 11.8605C21.0474 13.3723 20.8098 14.8894 20.2418 16.2948C19.991 16.7047 19.6029 17.0123 19.1466 17.163V17.2298ZM43.1881 5.209C42.8112 5.1605 42.4297 5.1605 42.0528 5.209C41.3293 5.20838 40.6142 5.36325 39.9558 5.66312L39.5418 5.83675V2.93841C39.6142 1.96028 39.6142 0.978133 39.5418 0C39.3815 0 34.2794 0.975017 34.1992 1.01509C34.1598 1.1137 34.1598 1.22367 34.1992 1.32228C34.1992 1.60277 34.1992 1.58941 34.8003 1.72298C34.969 1.76082 35.1311 1.82386 35.2811 1.90997C35.5418 2.15513 35.7153 2.47873 35.7753 2.83156C35.9274 3.84801 35.9766 4.8772 35.9222 5.90353V17.6305L36.2828 17.7106C36.8171 17.8308 38.3264 18.0846 38.8205 18.138C39.8074 18.2165 40.7989 18.2165 41.7857 18.138C42.881 18.0261 43.925 17.6175 44.8053 16.9561C45.6855 16.2948 46.3686 15.4057 46.781 14.3848C47.0268 13.7296 47.1971 13.0485 47.2885 12.3547C47.368 11.4149 47.3366 10.469 47.195 9.53647C47.0517 8.49122 46.5904 7.51534 45.8736 6.74121C45.1568 5.96707 44.2192 5.43215 43.1881 5.209ZM39.6887 17.0027C39.6887 16.8291 39.5551 10.979 39.5819 8.64159V6.81177L39.9692 6.71827C40.2305 6.68083 40.4959 6.68083 40.7572 6.71827C41.0462 6.68888 41.337 6.75453 41.5853 6.90526C42.0841 7.24951 42.4983 7.70241 42.7968 8.22989C43.0952 8.75737 43.2701 9.34567 43.3083 9.95052C43.4056 10.9231 43.4056 11.903 43.3083 12.8756C43.2284 14.2892 42.6837 15.6367 41.759 16.7089C41.4965 16.9582 41.1669 17.1253 40.8106 17.1897C40.5411 17.2366 40.2655 17.2366 39.9959 17.1897C39.7421 17.1897 39.7421 17.1096 39.7421 17.0027H39.6887Z" fill="#33629A"/>
</svg>
