<svg width="100" height="40" viewBox="0 0 100 40" fill="none" xmlns="http://www.w3.org/2000/svg">
<path d="M23.1321 0.509149V39.1021C23.1337 39.1902 23.1134 39.2772 23.0731 39.3544C23.0329 39.4317 22.9741 39.4967 22.9027 39.5429C22.8312 39.589 22.7495 39.6148 22.6656 39.6177C22.5817 39.6206 22.4986 39.6005 22.4244 39.5594L15.4958 35.9171C15.4151 35.8755 15.347 35.8111 15.2993 35.7311C15.2516 35.6511 15.2262 35.5587 15.2259 35.4643V4.1492C15.2262 4.05483 15.2516 3.96243 15.2993 3.88242C15.347 3.80242 15.4151 3.73799 15.4958 3.69642L22.4223 0.0586041C22.4961 0.017653 22.5789 -0.00245832 22.6624 0.000239775C22.7459 0.00293787 22.8273 0.0283528 22.8987 0.0739957C22.97 0.119639 23.0289 0.183945 23.0694 0.260616C23.11 0.337288 23.1308 0.423696 23.13 0.51138L23.1321 0.509149ZM77.7149 14.3422V39.1066C77.7146 39.1931 77.6932 39.2781 77.6529 39.3535C77.6125 39.429 77.5545 39.4924 77.4842 39.5377C77.414 39.583 77.3339 39.6088 77.2516 39.6126C77.1692 39.6164 77.0873 39.5981 77.0136 39.5594L70.0765 35.9171C69.9961 35.8752 69.9285 35.8106 69.8812 35.7307C69.8339 35.6507 69.8088 35.5584 69.8087 35.4643V14.3422C69.8087 14.2079 69.8595 14.0792 69.95 13.9842C70.0405 13.8893 70.1632 13.8359 70.2911 13.8359H77.2325C77.3604 13.8359 77.4831 13.8893 77.5736 13.9842C77.6641 14.0792 77.7149 14.2079 77.7149 14.3422ZM68.2211 38.2367L68.085 38.3438C67.286 38.9581 66.3809 39.4035 65.4199 39.6553C64.2522 39.9719 63.031 40.0038 61.8497 39.7485C60.6685 39.4932 59.5587 38.9575 58.6053 38.1824C57.6519 37.4073 56.8802 36.4134 56.3495 35.2769C55.8188 34.1403 55.5431 32.8914 55.5434 31.6258V14.4091C55.5434 14.2752 55.594 14.1468 55.684 14.0519C55.774 13.957 55.8962 13.9034 56.0238 13.9028L60.4742 13.9787H62.9524C62.9799 13.9758 63.0077 13.9758 63.0352 13.9787C63.1442 14.0018 63.2422 14.0637 63.3127 14.1539C63.3832 14.2441 63.4218 14.3571 63.4221 14.4738V20.458C63.4195 20.49 63.4195 20.522 63.4221 20.5539V34.0413C63.4232 35.0614 63.8098 36.0393 64.4971 36.7606C65.1844 37.4819 66.1163 37.8876 67.0883 37.8888H68.0468C68.0778 37.8822 68.1098 37.8836 68.1402 37.8929C68.1706 37.9022 68.1983 37.9191 68.2211 37.9421C68.2439 37.9652 68.261 37.9936 68.271 38.0251C68.281 38.0566 68.2835 38.0902 68.2784 38.123C68.2711 38.1656 68.251 38.2069 68.2211 38.2367ZM13.4852 16.963C13.0527 16.781 12.591 16.6879 12.125 16.6886H11.5724C11.0892 16.6886 10.6106 16.7887 10.1642 16.983C9.71783 17.1774 9.31236 17.4622 8.97102 17.8213C8.62968 18.1803 8.35918 18.6065 8.17501 19.0754C7.99084 19.5443 7.89662 20.0468 7.89774 20.5539V34.0413C7.90055 35.0621 8.28895 36.0402 8.97778 36.761C9.66662 37.4818 10.5997 37.8866 11.5724 37.8865H12.531C12.5619 37.8826 12.5933 37.8866 12.6225 37.8983C12.6516 37.91 12.6775 37.929 12.6981 37.9536C12.7186 37.9783 12.7331 38.0078 12.7403 38.0396C12.7475 38.0715 12.7471 38.1047 12.7392 38.1364C12.7294 38.1782 12.707 38.2157 12.6755 38.2434L12.5416 38.3505C11.3623 39.2481 9.96952 39.7862 8.5171 39.9052C7.06469 40.0242 5.6092 39.7196 4.31144 39.0249C3.01369 38.3302 1.92419 37.2725 1.16333 35.9687C0.402471 34.6649 -0.000134386 33.1658 3.36485e-08 31.6369V22.4163C3.36485e-08 17.8261 3.58119 13.9519 7.953 13.9764C9.03401 13.9838 10.102 14.2244 11.0907 14.6833C12.0793 15.1422 12.9675 15.8096 13.6999 16.644C13.7259 16.6783 13.7406 16.7204 13.7419 16.7641C13.7432 16.8079 13.731 16.8509 13.7071 16.8868C13.6832 16.9226 13.6489 16.9494 13.6093 16.9632C13.5697 16.9769 13.5248 16.9768 13.4852 16.963ZM99.9969 31.2711C99.9969 33.5461 99.4082 35.4286 98.2286 36.9185C98.0522 37.1327 97.8886 37.3312 97.6824 37.5319C96.2861 38.9594 94.4944 39.7266 92.3181 39.8739C92.3119 39.8774 92.3049 39.8792 92.2979 39.8792C92.2908 39.8792 92.2839 39.8774 92.2777 39.8739L92.0737 39.8895H91.232C89.8311 39.8392 88.4372 39.6594 87.0664 39.3519L86.8709 39.3073C85.859 39.0328 84.8674 38.6817 83.9039 38.2568C83.555 38.0962 83.2569 37.8347 83.0443 37.503C82.8316 37.1713 82.7133 36.7829 82.7031 36.3832L82.5118 31.5678C82.5104 31.5314 82.516 31.4951 82.5282 31.4611C82.5405 31.427 82.5592 31.3959 82.5833 31.3697C82.6073 31.3434 82.6361 31.3225 82.668 31.3083C82.6999 31.294 82.7343 31.2867 82.769 31.2867C82.9645 31.2867 83.143 31.4027 83.2323 31.5834C84.1953 33.5208 85.4554 35.2788 86.9622 36.7869C88.2374 38.0583 89.5679 38.8122 90.9579 39.0508C91.2809 39.1066 91.6082 39.1356 91.9355 39.1334C92.0992 39.1334 92.2756 39.1334 92.4243 39.111H92.5051C92.5636 39.1104 92.6219 39.1044 92.6794 39.0932C92.9833 39.0664 93.2851 38.9973 93.572 38.8925C93.6953 38.8545 93.8143 38.8122 93.9312 38.7586C94.0226 38.7207 94.114 38.6806 94.199 38.6337C94.7384 38.3489 95.2143 37.9476 95.5953 37.4561C95.6719 37.3669 95.7441 37.2732 95.8079 37.175C95.8738 37.0724 95.9418 36.9743 95.9992 36.8762C96.2117 36.3542 96.3137 35.7922 96.3031 35.2257C96.3306 34.6359 96.2138 34.0485 95.9638 33.5195C95.7138 32.9904 95.3389 32.5374 94.8749 32.2034C93.6196 31.3646 92.2419 30.7475 90.7963 30.3767C89.5022 30.0233 88.2343 29.5715 87.0026 29.0251C86.372 28.719 85.7748 28.3421 85.2216 27.901C85.0622 27.7805 84.9028 27.64 84.7434 27.5062C83.3045 26.2549 82.5841 24.3167 82.5841 21.687C82.5798 20.8394 82.7073 19.9963 82.9624 19.1912C82.9964 19.0952 83.0304 18.9993 83.0708 18.9012C83.1898 18.5756 83.3279 18.2588 83.4852 17.9488C83.4852 17.931 83.5022 17.9109 83.5128 17.8886C83.8593 17.2596 84.2843 16.6797 84.7731 16.1667C85.8163 15.0769 87.1505 14.3457 88.5987 14.0701C89.3044 13.9229 90.0227 13.8515 90.7411 13.856C91.1449 13.856 91.5678 13.8783 91.9865 13.9184C92.9435 14.0168 93.8898 14.208 94.8132 14.4894C96.0077 14.8686 97.1723 15.3504 98.2903 15.9281C98.2956 15.931 98.3001 15.9355 98.3031 15.9411C98.3061 15.9466 98.3076 15.9529 98.3073 15.9593L98.4072 18.9057L98.4837 21.2944C98.4848 21.3294 98.4792 21.3641 98.4672 21.3967C98.4552 21.4293 98.437 21.459 98.4138 21.484C98.3906 21.509 98.3627 21.5288 98.332 21.5422C98.3013 21.5557 98.2683 21.5624 98.235 21.5621C98.1461 21.5619 98.0588 21.5368 97.9822 21.4893C97.9056 21.4419 97.8425 21.3738 97.7993 21.2922C97.183 20.1279 96.4816 19.0172 95.7016 17.9689C95.3491 17.4958 94.9723 17.0431 94.5731 16.6128L94.4795 16.5169C93.2745 15.25 91.9653 14.6188 90.5519 14.6188C89.1386 14.6188 88.0398 14.96 87.2577 15.6448C86.881 15.9811 86.5819 16.4027 86.3831 16.878C86.1843 17.3532 86.0909 17.8696 86.11 18.3882C86.0927 18.9197 86.2131 19.4461 86.4582 19.9115C86.7033 20.3769 87.0641 20.7639 87.5021 21.0313C88.5712 21.7044 89.7282 22.2101 90.9366 22.5323L91.6167 22.7264C92.6007 23.0074 93.2639 23.2081 93.6167 23.3286C94.0417 23.4713 94.5731 23.6676 95.2043 23.9219C95.7462 24.1271 96.2669 24.3947 96.7558 24.7159C97.2042 25.0304 97.6314 25.3806 98.031 25.7642C98.456 26.159 98.8131 26.6318 99.0788 27.1604C99.7185 28.4251 100.035 29.8414 99.9969 31.2733V31.2711ZM51.5967 27.1984V26.9084V26.5248V26.2482C51.5967 26.0519 51.5755 25.8512 51.5563 25.6549L51.5351 25.4363L51.5159 25.2691C51.5153 25.1605 51.501 25.0525 51.4734 24.9479C51.4734 24.8408 51.4437 24.7338 51.4246 24.6312C51.4033 24.5286 51.4012 24.4929 51.3863 24.4215L51.3332 24.136C51.2813 23.8796 51.2211 23.6252 51.1525 23.3732L51.0718 23.0788L50.9761 22.7754C50.9442 22.6773 50.9123 22.5792 50.8762 22.481C50.8084 22.283 50.7361 22.0867 50.6594 21.8922L50.568 21.6647C50.5197 21.5427 50.465 21.4236 50.4044 21.3078C50.347 21.2008 50.2726 21.0134 50.1961 20.8751C50.0017 20.4745 49.7845 20.0864 49.5458 19.7131C49.4511 19.5629 49.3533 19.4149 49.2525 19.2692L49.1058 19.0596L49.0144 18.9347C48.7207 18.5336 48.4041 18.1515 48.0665 17.7905L47.8816 17.5964C47.6651 17.3709 47.4396 17.1551 47.2058 16.9496L47.1548 16.9027C47.0197 16.7826 46.8837 16.6636 46.7467 16.5459L46.5129 16.3585C46.2755 16.1733 46.0308 15.9985 45.7797 15.8344C45.6968 15.7808 45.6118 15.7229 45.5268 15.6738L45.2717 15.5177C45.186 15.4651 45.0988 15.4153 45.0103 15.3682C44.9232 15.3236 44.8381 15.2723 44.7489 15.2255L44.4811 15.0872C44.392 15.0404 44.3013 14.9973 44.209 14.9578L43.937 14.8329C43.7519 14.7518 43.5648 14.676 43.3759 14.6054L43.0933 14.5006L42.8042 14.4047L42.5152 14.3155C42.321 14.258 42.1254 14.2059 41.9286 14.1593L41.6905 14.1058L41.3292 14.0344C41.1263 13.9952 40.9221 13.9632 40.7171 13.9385L40.4111 13.8984L39.9648 13.8582H38.6003C36.6578 13.9461 34.7618 14.5099 33.064 15.5043C31.3662 16.4988 29.9137 17.8965 28.8227 19.5855C27.7317 21.2745 27.0325 23.2079 26.781 25.2313C26.5294 27.2546 26.7325 29.3117 27.3741 31.2379C28.0156 33.1641 29.0778 34.906 30.4757 36.3244C31.8735 37.7427 33.5682 38.798 35.4242 39.406C37.2803 40.014 39.2461 40.1577 41.1646 39.8257C43.083 39.4937 44.9008 38.6952 46.4725 37.494L46.6702 37.3379C46.8296 37.2085 46.989 37.0836 47.1378 36.952C47.1888 36.9119 47.2376 36.8695 47.2865 36.8226L47.4098 36.7022L47.4481 36.6687C48.352 35.8186 49.1344 34.836 49.771 33.7513C49.7774 33.738 49.7817 33.7201 49.771 33.7067C49.7663 33.7011 49.7605 33.6965 49.754 33.6934C49.7467 33.6899 49.7387 33.6883 49.7307 33.6889C49.723 33.6901 49.7157 33.6931 49.7094 33.6978L49.6669 33.7313L49.2758 34.106C48.4754 34.9491 47.5211 35.6141 46.4701 36.0613C45.4192 36.5086 44.2931 36.7288 43.1591 36.7089C41.8272 36.71 40.514 36.3806 39.3265 35.7477C38.139 35.1147 37.1109 34.196 36.3262 33.0666C35.2607 31.548 34.6871 29.711 34.6897 27.8251V27.2006H51.5967V27.1984ZM38.9361 15.0515C40.0575 15.0539 41.1321 15.523 41.9243 16.356C42.7164 17.1889 43.1613 18.3177 43.1613 19.4945V26.6898H34.7024V19.4945C34.703 18.3163 35.1492 17.1866 35.9431 16.3535C36.7369 15.5204 37.8134 15.0521 38.9361 15.0515Z" fill="#0056FE"/>
</svg>
