<svg width="90" height="24" viewBox="0 0 90 24" fill="none" xmlns="http://www.w3.org/2000/svg">
<path fill-rule="evenodd" clip-rule="evenodd" d="M0 0V22.4L22.4 0H0Z" fill="#92CFAE"/>
<path fill-rule="evenodd" clip-rule="evenodd" d="M1.60156 24.0006H24.0016V1.60059L1.60156 24.0006Z" fill="#2A8288"/>
<path fill-rule="evenodd" clip-rule="evenodd" d="M36.5813 11.4798C39.1857 11.4798 40.5703 10.2043 40.5703 7.82125V7.6866C40.5703 5.13572 39.1196 4.12879 36.5813 4.12879H33.8778V11.4798H36.5813ZM28.5703 0H36.7131C42.4493 0 45.7132 2.58445 45.7132 7.65343V7.7873C45.7132 12.8559 42.2517 15.2729 36.8777 15.2729H33.8778V24H28.5703V0Z" fill="black"/>
<path fill-rule="evenodd" clip-rule="evenodd" d="M56.2806 19.8712C58.8359 19.8712 60.1299 18.73 60.1299 16.548V16.4141C60.1299 14.2656 58.8359 13.0908 56.1513 13.0908H53.1754V19.8712H56.2806ZM56.4748 24H48.0002V0H63.0732V4.22948H53.208L53.1754 9.26413H56.6363C61.9734 9.26413 65.1431 11.6476 65.1431 16.4473V16.5819C65.1431 21.2809 62.1998 24 56.4748 24Z" fill="black"/>
<path fill-rule="evenodd" clip-rule="evenodd" d="M69.0002 0.0335174H74.5732V10.3576L83.1731 0H89.0901L79.3547 11.3632L89.5717 24H83.0699L74.5732 13.2401V24H69.0002V0.0335174Z" fill="black"/>
</svg>
