<svg width="66" height="67" viewBox="0 0 66 67" fill="none" xmlns="http://www.w3.org/2000/svg">
<g clip-path="url(#clip0_63_59)">
<g filter="url(#filter0_i_63_59)">
<path fill-rule="evenodd" clip-rule="evenodd" d="M35.9649 42.5666L33.1049 28.1954C32.8894 27.1111 32.4625 26.08 31.8484 25.1608C31.2344 24.2416 30.4453 23.4524 29.5262 22.8382C28.6071 22.2241 27.576 21.797 26.4918 21.5814C25.4076 21.3657 24.2916 21.3658 23.2074 21.5816L8.8769 24.4335C6.68763 24.8698 4.76127 26.1577 3.52148 28.0141C2.28168 29.8705 1.82997 32.1433 2.26568 34.3327L5.1257 48.7039C5.56141 50.8933 6.84886 52.8199 8.70492 54.0602C10.561 55.3005 12.8337 55.7528 15.0232 55.3177L29.373 52.4619C31.5582 52.0217 33.4795 50.7326 34.7153 48.8775C35.9512 47.0223 36.4006 44.7527 35.9649 42.5666Z" fill="url(#paint0_linear_63_59)"/>
<path fill-rule="evenodd" clip-rule="evenodd" d="M35.9649 42.5666L33.1049 28.1954C32.8894 27.1111 32.4625 26.08 31.8484 25.1608C31.2344 24.2416 30.4453 23.4524 29.5262 22.8382C28.6071 22.2241 27.576 21.797 26.4918 21.5814C25.4076 21.3657 24.2916 21.3658 23.2074 21.5816L8.8769 24.4335C6.68763 24.8698 4.76127 26.1577 3.52148 28.0141C2.28168 29.8705 1.82997 32.1433 2.26568 34.3327L5.1257 48.7039C5.56141 50.8933 6.84886 52.8199 8.70492 54.0602C10.561 55.3005 12.8337 55.7528 15.0232 55.3177L29.373 52.4619C31.5582 52.0217 33.4795 50.7326 34.7153 48.8775C35.9512 47.0223 36.4006 44.7527 35.9649 42.5666Z" fill="url(#paint1_linear_63_59)"/>
</g>
<path fill-rule="evenodd" clip-rule="evenodd" d="M13.9246 44.7499L11.997 45.1335L7.11439 35.569L8.86635 35.2204L12.5723 42.7212L13.2977 34.3385L14.8312 34.0333L18.6956 41.5026L19.2475 33.1544L21.008 32.8041L20.1571 43.5096L18.2295 43.8932L14.6155 36.9218L13.931 44.7487L13.9246 44.7499ZM28.6441 36.3566C29.1227 36.4881 29.5541 36.7528 29.8881 37.1199C30.2221 37.487 30.445 37.9415 30.5308 38.4303C30.618 38.8166 30.6212 39.2172 30.5401 39.6048C30.4589 39.9925 30.2954 40.3581 30.0606 40.677C29.5862 41.3398 28.8707 41.79 28.0679 41.9308L23.7244 42.7952L21.7083 32.6647L25.7327 31.8638C26.5087 31.6922 27.321 31.8338 27.9932 32.2578C28.323 32.4527 28.6069 32.7165 28.8255 33.0311C29.0441 33.3457 29.1923 33.7038 29.26 34.0809C29.3536 34.4816 29.3463 34.8992 29.2388 35.2963C29.1313 35.6935 28.927 36.0578 28.6441 36.3566ZM26.0439 33.4273L23.6751 33.8987L24.2036 36.5545L26.5595 36.0856C26.9129 36.0153 27.2238 35.8075 27.4239 35.508C27.624 35.2084 27.6969 34.8416 27.6266 34.4883C27.5563 34.135 27.3485 33.8241 27.0489 33.624C26.7494 33.4239 26.3826 33.351 26.0293 33.4213L26.0439 33.4273ZM25.0826 40.904L27.7619 40.3708C28.1258 40.2835 28.4419 40.0587 28.6437 39.7435C28.8455 39.4284 28.9174 39.0473 28.8444 38.6802C28.7713 38.3132 28.559 37.9887 28.2519 37.7748C27.9448 37.5609 27.5668 37.4742 27.1971 37.5329L24.5049 38.0687L25.0826 40.904Z" fill="black"/>
<g filter="url(#filter1_iii_63_59)">
<path fill-rule="evenodd" clip-rule="evenodd" d="M13.9246 44.7499L11.997 45.1335L7.11439 35.569L8.86635 35.2204L12.5723 42.7212L13.2977 34.3385L14.8312 34.0333L18.6956 41.5026L19.2475 33.1544L21.008 32.8041L20.1571 43.5096L18.2295 43.8932L14.6155 36.9218L13.931 44.7487L13.9246 44.7499ZM28.6441 36.3566C29.1227 36.4881 29.5541 36.7528 29.8881 37.1199C30.2221 37.487 30.445 37.9415 30.5308 38.4303C30.618 38.8166 30.6212 39.2172 30.5401 39.6048C30.4589 39.9925 30.2954 40.3581 30.0606 40.677C29.5862 41.3398 28.8707 41.79 28.0679 41.9308L23.7244 42.7952L21.7083 32.6647L25.7327 31.8638C26.5087 31.6922 27.321 31.8338 27.9932 32.2578C28.323 32.4527 28.6069 32.7165 28.8255 33.0311C29.0441 33.3457 29.1923 33.7038 29.26 34.0809C29.3536 34.4816 29.3463 34.8992 29.2388 35.2963C29.1313 35.6935 28.927 36.0578 28.6441 36.3566ZM26.0439 33.4273L23.6751 33.8987L24.2036 36.5545L26.5595 36.0856C26.9129 36.0153 27.2238 35.8075 27.4239 35.508C27.624 35.2084 27.6969 34.8416 27.6266 34.4883C27.5563 34.135 27.3485 33.8241 27.0489 33.624C26.7494 33.4239 26.3826 33.351 26.0293 33.4213L26.0439 33.4273ZM25.0826 40.904L27.7619 40.3708C28.1258 40.2835 28.4419 40.0587 28.6437 39.7435C28.8455 39.4284 28.9174 39.0473 28.8444 38.6802C28.7713 38.3132 28.559 37.9887 28.2519 37.7748C27.9448 37.5609 27.5668 37.4742 27.1971 37.5329L24.5049 38.0687L25.0826 40.904Z" fill="#D0E2F3"/>
</g>
</g>
<g clip-path="url(#clip1_63_59)">
<g filter="url(#filter2_i_63_59)">
<path d="M32.8594 6.53631C33.3934 3.55365 36.2441 1.56856 39.2267 2.10247L58.4554 5.54451C61.4381 6.07843 63.4231 8.92915 62.8892 11.9118L59.4339 31.2147C58.9 34.1973 56.0493 36.1823 53.0666 35.6484L33.838 32.2064C30.8553 31.6725 28.8702 28.8218 29.4041 25.8392L32.8594 6.53631Z" fill="url(#paint2_linear_63_59)"/>
</g>
<g filter="url(#filter3_iii_63_59)">
<path d="M45.3069 13.2217L40.1488 10.4192L30.6943 18.7921L29.1868 27.2138L38.9286 18.5439L36.7132 25.2506L41.947 28.0666L50.4159 18.8483C49.7446 20.7589 48.4208 25.12 52.6945 27.2386C55.224 28.4925 57.988 27.657 60.6564 25.833L62.0734 17.9173C59.27 20.7817 56.6872 22.7326 55.6154 22.2301C53.8135 21.3852 56.5736 15.8 58.3536 12.1981L58.3812 12.142L52.5875 9.04046L43.2024 19.309L45.3069 13.2217Z" fill="#D0E2F3"/>
</g>
</g>
<g clip-path="url(#clip2_63_59)">
<mask id="mask0_63_59" style="mask-type:luminance" maskUnits="userSpaceOnUse" x="30" y="31" width="35" height="35">
<path d="M41.5665 31.6884L59.4435 34.7554C63.0644 35.3766 65.5192 38.8224 64.8944 42.464L61.8274 60.3409C61.2062 63.9618 57.7604 66.4166 54.1188 65.7918L36.2419 62.7248C32.6209 62.1036 30.1662 58.6579 30.791 55.0163L33.858 37.1393C34.4792 33.5184 37.9456 31.0672 41.5665 31.6884Z" fill="white"/>
</mask>
<g mask="url(#mask0_63_59)">
<g filter="url(#filter4_i_63_59)">
<path d="M61.0952 35.0388L39.9148 31.405C37.1932 30.9381 34.6083 32.7659 34.1414 35.4876L30.5076 56.668C30.0407 59.3896 31.8685 61.9745 34.5901 62.4414L55.7706 66.0752C58.4922 66.5421 61.0771 64.7143 61.544 61.9926L65.1778 40.8122C65.6447 38.0906 63.8169 35.5057 61.0952 35.0388Z" fill="url(#paint3_linear_63_59)"/>
</g>
<g filter="url(#filter5_i_63_59)">
<path fill-rule="evenodd" clip-rule="evenodd" d="M47.6051 48.7645L47.4552 46.907L50.8239 45.3976L54.3815 46.2635L54.6213 48.0939L68.0149 68.6031L40.9613 71.9705L47.6051 48.7645Z" fill="#F91155"/>
<path fill-rule="evenodd" clip-rule="evenodd" d="M47.6051 48.7645L47.4552 46.907L50.8239 45.3976L54.3815 46.2635L54.6213 48.0939L68.0149 68.6031L40.9613 71.9705L47.6051 48.7645Z" fill="url(#paint4_linear_63_59)"/>
</g>
<g filter="url(#filter6_iii_63_59)">
<path fill-rule="evenodd" clip-rule="evenodd" d="M34.7397 51.883C33.4994 52.1601 32.3272 51.1709 32.3646 49.8354C32.3896 48.9451 33.0145 48.1577 33.8783 47.9651C35.1186 47.688 36.2908 48.6772 36.2569 49.992C36.2249 50.9237 35.5828 51.6868 34.7397 51.883ZM34.3355 46.1692C32.0163 46.1547 30.2874 48.2862 30.7352 50.6422C31.0548 52.3797 32.5604 53.6604 34.2825 53.6789C36.6017 53.6934 38.3306 51.5618 37.8828 49.2059C37.5389 47.4855 36.0369 46.1842 34.3355 46.1692Z" fill="#D0E2F3"/>
</g>
<g filter="url(#filter7_iii_63_59)">
<path fill-rule="evenodd" clip-rule="evenodd" d="M39.5826 45.7481C39.0405 45.8041 38.6757 46.3167 38.8352 46.8765C38.9575 47.2809 39.3637 47.521 39.7745 47.485L42.157 47.2547L38.9013 52.5749C38.7866 52.747 38.9408 52.9651 39.1342 52.9557L44.9556 52.4208C45.3665 52.3848 45.7201 52.0621 45.7704 51.6447C45.8248 51.079 45.3714 50.6178 44.8293 50.6739L41.9289 50.9431L45.1847 45.6229C45.2994 45.4508 45.1487 45.212 44.9518 45.2421L39.5826 45.7481Z" fill="#D0E2F3"/>
</g>
<g filter="url(#filter8_iii_63_59)">
<path fill-rule="evenodd" clip-rule="evenodd" d="M62.8722 43.5645C62.4885 43.6904 62.2484 44.0965 62.2844 44.5074L62.5536 47.4078L57.5615 44.1018C57.3895 43.9871 57.1542 44.1171 57.1808 44.3347L57.7321 50.3081C57.7682 50.7189 58.0702 51.069 58.4876 51.1193C59.0498 51.1944 59.5145 50.7203 59.4584 50.1782L59.1928 47.2572L64.1849 50.5631C64.3569 50.6778 64.5922 50.5478 64.5656 50.3302L64.0178 44.3362C63.941 43.7905 63.4114 43.4014 62.8722 43.5645Z" fill="#D0E2F3"/>
</g>
<g filter="url(#filter9_iii_63_59)">
<path fill-rule="evenodd" clip-rule="evenodd" d="M50.7555 44.5554C47.9207 44.8145 45.7857 46.7061 45.9657 48.7604C46.1665 50.8184 48.5996 52.2795 51.4344 52.0203C54.2691 51.7612 56.4041 49.8697 56.2241 47.8153C56.0233 45.7574 53.5902 44.2962 50.7555 44.5554ZM50.906 46.2852C52.8534 46.1081 54.4228 47.0164 54.5149 47.9694C54.6106 48.9017 53.2348 50.0927 51.2874 50.2698C49.34 50.4469 47.7705 49.5387 47.6784 48.5857C47.5828 47.6534 48.9551 46.483 50.906 46.2852Z" fill="#D0E2F3"/>
</g>
</g>
</g>
<defs>
<filter id="filter0_i_63_59" x="2.10352" y="21.4199" width="35.4867" height="35.5223" filterUnits="userSpaceOnUse" color-interpolation-filters="sRGB">
<feFlood flood-opacity="0" result="BackgroundImageFix"/>
<feBlend mode="normal" in="SourceGraphic" in2="BackgroundImageFix" result="shape"/>
<feColorMatrix in="SourceAlpha" type="matrix" values="0 0 0 0 0 0 0 0 0 0 0 0 0 0 0 0 0 0 127 0" result="hardAlpha"/>
<feOffset dx="1.46273" dy="1.46273"/>
<feGaussianBlur stdDeviation="0.731363"/>
<feComposite in2="hardAlpha" operator="arithmetic" k2="-1" k3="1"/>
<feColorMatrix type="matrix" values="0 0 0 0 0 0 0 0 0 0.37028 0 0 0 0 0.74056 0 0 0 0.5 0"/>
<feBlend mode="multiply" in2="shape" result="effect1_innerShadow_63_59"/>
</filter>
<filter id="filter1_iii_63_59" x="6.03311" y="29.6307" width="25.6467" height="16.5843" filterUnits="userSpaceOnUse" color-interpolation-filters="sRGB">
<feFlood flood-opacity="0" result="BackgroundImageFix"/>
<feBlend mode="normal" in="SourceGraphic" in2="BackgroundImageFix" result="shape"/>
<feColorMatrix in="SourceAlpha" type="matrix" values="0 0 0 0 0 0 0 0 0 0 0 0 0 0 0 0 0 0 127 0" result="hardAlpha"/>
<feOffset dx="1.08115" dy="1.08115"/>
<feGaussianBlur stdDeviation="1.08115"/>
<feComposite in2="hardAlpha" operator="arithmetic" k2="-1" k3="1"/>
<feColorMatrix type="matrix" values="0 0 0 0 0.534167 0 0 0 0 0.645967 0 0 0 0 0.749167 0 0 0 0.6 0"/>
<feBlend mode="normal" in2="shape" result="effect1_innerShadow_63_59"/>
<feColorMatrix in="SourceAlpha" type="matrix" values="0 0 0 0 0 0 0 0 0 0 0 0 0 0 0 0 0 0 127 0" result="hardAlpha"/>
<feOffset dx="-1.08115" dy="-2.16229"/>
<feGaussianBlur stdDeviation="1.08115"/>
<feComposite in2="hardAlpha" operator="arithmetic" k2="-1" k3="1"/>
<feColorMatrix type="matrix" values="0 0 0 0 0.533333 0 0 0 0 0.647059 0 0 0 0 0.74902 0 0 0 0.3 0"/>
<feBlend mode="normal" in2="effect1_innerShadow_63_59" result="effect2_innerShadow_63_59"/>
<feColorMatrix in="SourceAlpha" type="matrix" values="0 0 0 0 0 0 0 0 0 0 0 0 0 0 0 0 0 0 127 0" result="hardAlpha"/>
<feOffset dx="-1.08115" dy="-2.16229"/>
<feGaussianBlur stdDeviation="1.62172"/>
<feComposite in2="hardAlpha" operator="arithmetic" k2="-1" k3="1"/>
<feColorMatrix type="matrix" values="0 0 0 0 1 0 0 0 0 1 0 0 0 0 1 0 0 0 0.4 0"/>
<feBlend mode="screen" in2="effect2_innerShadow_63_59" result="effect3_innerShadow_63_59"/>
</filter>
<filter id="filter2_i_63_59" x="29.3174" y="2.01562" width="35.1214" height="35.1825" filterUnits="userSpaceOnUse" color-interpolation-filters="sRGB">
<feFlood flood-opacity="0" result="BackgroundImageFix"/>
<feBlend mode="normal" in="SourceGraphic" in2="BackgroundImageFix" result="shape"/>
<feColorMatrix in="SourceAlpha" type="matrix" values="0 0 0 0 0 0 0 0 0 0 0 0 0 0 0 0 0 0 127 0" result="hardAlpha"/>
<feOffset dx="1.46273" dy="1.46273"/>
<feGaussianBlur stdDeviation="0.731363"/>
<feComposite in2="hardAlpha" operator="arithmetic" k2="-1" k3="1"/>
<feColorMatrix type="matrix" values="0 0 0 0 0 0 0 0 0 0.37028 0 0 0 0 0.74056 0 0 0 0.5 0"/>
<feBlend mode="multiply" in2="shape" result="effect1_innerShadow_63_59"/>
</filter>
<filter id="filter3_iii_63_59" x="28.1054" y="6.87775" width="35.049" height="22.2698" filterUnits="userSpaceOnUse" color-interpolation-filters="sRGB">
<feFlood flood-opacity="0" result="BackgroundImageFix"/>
<feBlend mode="normal" in="SourceGraphic" in2="BackgroundImageFix" result="shape"/>
<feColorMatrix in="SourceAlpha" type="matrix" values="0 0 0 0 0 0 0 0 0 0 0 0 0 0 0 0 0 0 127 0" result="hardAlpha"/>
<feOffset dx="1.08115" dy="1.08115"/>
<feGaussianBlur stdDeviation="1.08115"/>
<feComposite in2="hardAlpha" operator="arithmetic" k2="-1" k3="1"/>
<feColorMatrix type="matrix" values="0 0 0 0 0.534167 0 0 0 0 0.645967 0 0 0 0 0.749167 0 0 0 0.6 0"/>
<feBlend mode="normal" in2="shape" result="effect1_innerShadow_63_59"/>
<feColorMatrix in="SourceAlpha" type="matrix" values="0 0 0 0 0 0 0 0 0 0 0 0 0 0 0 0 0 0 127 0" result="hardAlpha"/>
<feOffset dx="-1.08115" dy="-2.16229"/>
<feGaussianBlur stdDeviation="1.08115"/>
<feComposite in2="hardAlpha" operator="arithmetic" k2="-1" k3="1"/>
<feColorMatrix type="matrix" values="0 0 0 0 0.533333 0 0 0 0 0.647059 0 0 0 0 0.74902 0 0 0 0.3 0"/>
<feBlend mode="normal" in2="effect1_innerShadow_63_59" result="effect2_innerShadow_63_59"/>
<feColorMatrix in="SourceAlpha" type="matrix" values="0 0 0 0 0 0 0 0 0 0 0 0 0 0 0 0 0 0 127 0" result="hardAlpha"/>
<feOffset dx="-1.08115" dy="-2.16229"/>
<feGaussianBlur stdDeviation="1.62172"/>
<feComposite in2="hardAlpha" operator="arithmetic" k2="-1" k3="1"/>
<feColorMatrix type="matrix" values="0 0 0 0 1 0 0 0 0 1 0 0 0 0 1 0 0 0 0.4 0"/>
<feBlend mode="screen" in2="effect2_innerShadow_63_59" result="effect3_innerShadow_63_59"/>
</filter>
<filter id="filter4_i_63_59" x="30.4346" y="31.332" width="36.2786" height="36.2791" filterUnits="userSpaceOnUse" color-interpolation-filters="sRGB">
<feFlood flood-opacity="0" result="BackgroundImageFix"/>
<feBlend mode="normal" in="SourceGraphic" in2="BackgroundImageFix" result="shape"/>
<feColorMatrix in="SourceAlpha" type="matrix" values="0 0 0 0 0 0 0 0 0 0 0 0 0 0 0 0 0 0 127 0" result="hardAlpha"/>
<feOffset dx="1.46273" dy="1.46273"/>
<feGaussianBlur stdDeviation="0.731363"/>
<feComposite in2="hardAlpha" operator="arithmetic" k2="-1" k3="1"/>
<feColorMatrix type="matrix" values="0 0 0 0 0 0 0 0 0 0.37028 0 0 0 0 0.74056 0 0 0 0.5 0"/>
<feBlend mode="multiply" in2="shape" result="effect1_innerShadow_63_59"/>
</filter>
<filter id="filter5_i_63_59" x="40.9614" y="45.3975" width="28.5159" height="28.036" filterUnits="userSpaceOnUse" color-interpolation-filters="sRGB">
<feFlood flood-opacity="0" result="BackgroundImageFix"/>
<feBlend mode="normal" in="SourceGraphic" in2="BackgroundImageFix" result="shape"/>
<feColorMatrix in="SourceAlpha" type="matrix" values="0 0 0 0 0 0 0 0 0 0 0 0 0 0 0 0 0 0 127 0" result="hardAlpha"/>
<feOffset dx="1.46273" dy="1.46273"/>
<feGaussianBlur stdDeviation="0.731363"/>
<feComposite in2="hardAlpha" operator="arithmetic" k2="-1" k3="1"/>
<feColorMatrix type="matrix" values="0 0 0 0 0 0 0 0 0 0.37028 0 0 0 0 0.74056 0 0 0 0.5 0"/>
<feBlend mode="multiply" in2="shape" result="effect1_innerShadow_63_59"/>
</filter>
<filter id="filter6_iii_63_59" x="29.5829" y="44.0067" width="9.45184" height="10.7532" filterUnits="userSpaceOnUse" color-interpolation-filters="sRGB">
<feFlood flood-opacity="0" result="BackgroundImageFix"/>
<feBlend mode="normal" in="SourceGraphic" in2="BackgroundImageFix" result="shape"/>
<feColorMatrix in="SourceAlpha" type="matrix" values="0 0 0 0 0 0 0 0 0 0 0 0 0 0 0 0 0 0 127 0" result="hardAlpha"/>
<feOffset dx="1.08115" dy="1.08115"/>
<feGaussianBlur stdDeviation="1.08115"/>
<feComposite in2="hardAlpha" operator="arithmetic" k2="-1" k3="1"/>
<feColorMatrix type="matrix" values="0 0 0 0 0.534167 0 0 0 0 0.645967 0 0 0 0 0.749167 0 0 0 0.6 0"/>
<feBlend mode="normal" in2="shape" result="effect1_innerShadow_63_59"/>
<feColorMatrix in="SourceAlpha" type="matrix" values="0 0 0 0 0 0 0 0 0 0 0 0 0 0 0 0 0 0 127 0" result="hardAlpha"/>
<feOffset dx="-1.08115" dy="-2.16229"/>
<feGaussianBlur stdDeviation="1.08115"/>
<feComposite in2="hardAlpha" operator="arithmetic" k2="-1" k3="1"/>
<feColorMatrix type="matrix" values="0 0 0 0 0.533333 0 0 0 0 0.647059 0 0 0 0 0.74902 0 0 0 0.3 0"/>
<feBlend mode="normal" in2="effect1_innerShadow_63_59" result="effect2_innerShadow_63_59"/>
<feColorMatrix in="SourceAlpha" type="matrix" values="0 0 0 0 0 0 0 0 0 0 0 0 0 0 0 0 0 0 127 0" result="hardAlpha"/>
<feOffset dx="-1.08115" dy="-2.16229"/>
<feGaussianBlur stdDeviation="1.62172"/>
<feComposite in2="hardAlpha" operator="arithmetic" k2="-1" k3="1"/>
<feColorMatrix type="matrix" values="0 0 0 0 1 0 0 0 0 1 0 0 0 0 1 0 0 0 0.4 0"/>
<feBlend mode="screen" in2="effect2_innerShadow_63_59" result="effect3_innerShadow_63_59"/>
</filter>
<filter id="filter7_iii_63_59" x="37.7162" y="43.077" width="9.13983" height="10.9602" filterUnits="userSpaceOnUse" color-interpolation-filters="sRGB">
<feFlood flood-opacity="0" result="BackgroundImageFix"/>
<feBlend mode="normal" in="SourceGraphic" in2="BackgroundImageFix" result="shape"/>
<feColorMatrix in="SourceAlpha" type="matrix" values="0 0 0 0 0 0 0 0 0 0 0 0 0 0 0 0 0 0 127 0" result="hardAlpha"/>
<feOffset dx="1.08115" dy="1.08115"/>
<feGaussianBlur stdDeviation="1.08115"/>
<feComposite in2="hardAlpha" operator="arithmetic" k2="-1" k3="1"/>
<feColorMatrix type="matrix" values="0 0 0 0 0.534167 0 0 0 0 0.645967 0 0 0 0 0.749167 0 0 0 0.6 0"/>
<feBlend mode="normal" in2="shape" result="effect1_innerShadow_63_59"/>
<feColorMatrix in="SourceAlpha" type="matrix" values="0 0 0 0 0 0 0 0 0 0 0 0 0 0 0 0 0 0 127 0" result="hardAlpha"/>
<feOffset dx="-1.08115" dy="-2.16229"/>
<feGaussianBlur stdDeviation="1.08115"/>
<feComposite in2="hardAlpha" operator="arithmetic" k2="-1" k3="1"/>
<feColorMatrix type="matrix" values="0 0 0 0 0.533333 0 0 0 0 0.647059 0 0 0 0 0.74902 0 0 0 0.3 0"/>
<feBlend mode="normal" in2="effect1_innerShadow_63_59" result="effect2_innerShadow_63_59"/>
<feColorMatrix in="SourceAlpha" type="matrix" values="0 0 0 0 0 0 0 0 0 0 0 0 0 0 0 0 0 0 127 0" result="hardAlpha"/>
<feOffset dx="-1.08115" dy="-2.16229"/>
<feGaussianBlur stdDeviation="1.62172"/>
<feComposite in2="hardAlpha" operator="arithmetic" k2="-1" k3="1"/>
<feColorMatrix type="matrix" values="0 0 0 0 1 0 0 0 0 1 0 0 0 0 1 0 0 0 0.4 0"/>
<feBlend mode="screen" in2="effect2_innerShadow_63_59" result="effect3_innerShadow_63_59"/>
</filter>
<filter id="filter8_iii_63_59" x="56.0976" y="41.3651" width="9.55145" height="10.843" filterUnits="userSpaceOnUse" color-interpolation-filters="sRGB">
<feFlood flood-opacity="0" result="BackgroundImageFix"/>
<feBlend mode="normal" in="SourceGraphic" in2="BackgroundImageFix" result="shape"/>
<feColorMatrix in="SourceAlpha" type="matrix" values="0 0 0 0 0 0 0 0 0 0 0 0 0 0 0 0 0 0 127 0" result="hardAlpha"/>
<feOffset dx="1.08115" dy="1.08115"/>
<feGaussianBlur stdDeviation="1.08115"/>
<feComposite in2="hardAlpha" operator="arithmetic" k2="-1" k3="1"/>
<feColorMatrix type="matrix" values="0 0 0 0 0.534167 0 0 0 0 0.645967 0 0 0 0 0.749167 0 0 0 0.6 0"/>
<feBlend mode="normal" in2="shape" result="effect1_innerShadow_63_59"/>
<feColorMatrix in="SourceAlpha" type="matrix" values="0 0 0 0 0 0 0 0 0 0 0 0 0 0 0 0 0 0 127 0" result="hardAlpha"/>
<feOffset dx="-1.08115" dy="-2.16229"/>
<feGaussianBlur stdDeviation="1.08115"/>
<feComposite in2="hardAlpha" operator="arithmetic" k2="-1" k3="1"/>
<feColorMatrix type="matrix" values="0 0 0 0 0.533333 0 0 0 0 0.647059 0 0 0 0 0.74902 0 0 0 0.3 0"/>
<feBlend mode="normal" in2="effect1_innerShadow_63_59" result="effect2_innerShadow_63_59"/>
<feColorMatrix in="SourceAlpha" type="matrix" values="0 0 0 0 0 0 0 0 0 0 0 0 0 0 0 0 0 0 127 0" result="hardAlpha"/>
<feOffset dx="-1.08115" dy="-2.16229"/>
<feGaussianBlur stdDeviation="1.62172"/>
<feComposite in2="hardAlpha" operator="arithmetic" k2="-1" k3="1"/>
<feColorMatrix type="matrix" values="0 0 0 0 1 0 0 0 0 1 0 0 0 0 1 0 0 0 0.4 0"/>
<feBlend mode="screen" in2="effect2_innerShadow_63_59" result="effect3_innerShadow_63_59"/>
</filter>
<filter id="filter9_iii_63_59" x="44.8739" y="42.3631" width="12.4421" height="10.7679" filterUnits="userSpaceOnUse" color-interpolation-filters="sRGB">
<feFlood flood-opacity="0" result="BackgroundImageFix"/>
<feBlend mode="normal" in="SourceGraphic" in2="BackgroundImageFix" result="shape"/>
<feColorMatrix in="SourceAlpha" type="matrix" values="0 0 0 0 0 0 0 0 0 0 0 0 0 0 0 0 0 0 127 0" result="hardAlpha"/>
<feOffset dx="1.08115" dy="1.08115"/>
<feGaussianBlur stdDeviation="1.08115"/>
<feComposite in2="hardAlpha" operator="arithmetic" k2="-1" k3="1"/>
<feColorMatrix type="matrix" values="0 0 0 0 0.534167 0 0 0 0 0.645967 0 0 0 0 0.749167 0 0 0 0.6 0"/>
<feBlend mode="normal" in2="shape" result="effect1_innerShadow_63_59"/>
<feColorMatrix in="SourceAlpha" type="matrix" values="0 0 0 0 0 0 0 0 0 0 0 0 0 0 0 0 0 0 127 0" result="hardAlpha"/>
<feOffset dx="-1.08115" dy="-2.16229"/>
<feGaussianBlur stdDeviation="1.08115"/>
<feComposite in2="hardAlpha" operator="arithmetic" k2="-1" k3="1"/>
<feColorMatrix type="matrix" values="0 0 0 0 0.533333 0 0 0 0 0.647059 0 0 0 0 0.74902 0 0 0 0.3 0"/>
<feBlend mode="normal" in2="effect1_innerShadow_63_59" result="effect2_innerShadow_63_59"/>
<feColorMatrix in="SourceAlpha" type="matrix" values="0 0 0 0 0 0 0 0 0 0 0 0 0 0 0 0 0 0 127 0" result="hardAlpha"/>
<feOffset dx="-1.08115" dy="-2.16229"/>
<feGaussianBlur stdDeviation="1.62172"/>
<feComposite in2="hardAlpha" operator="arithmetic" k2="-1" k3="1"/>
<feColorMatrix type="matrix" values="0 0 0 0 1 0 0 0 0 1 0 0 0 0 1 0 0 0 0.4 0"/>
<feBlend mode="screen" in2="effect2_innerShadow_63_59" result="effect3_innerShadow_63_59"/>
</filter>
<linearGradient id="paint0_linear_63_59" x1="9.22106" y1="52.9588" x2="28.844" y2="24.1715" gradientUnits="userSpaceOnUse">
<stop stop-color="#A42C91"/>
<stop offset="1" stop-color="#522A88"/>
</linearGradient>
<linearGradient id="paint1_linear_63_59" x1="2.07618" y1="25.7869" x2="39.9329" y2="33.0645" gradientUnits="userSpaceOnUse">
<stop stop-color="#0050EC"/>
<stop offset="1" stop-color="#39C7EC"/>
</linearGradient>
<linearGradient id="paint2_linear_63_59" x1="35.2416" y1="1.38912" x2="66.872" y2="21.3586" gradientUnits="userSpaceOnUse">
<stop stop-color="#0050EC"/>
<stop offset="1" stop-color="#39C7EC"/>
</linearGradient>
<linearGradient id="paint3_linear_63_59" x1="36.4497" y1="30.8105" x2="69.218" y2="51.2081" gradientUnits="userSpaceOnUse">
<stop stop-color="#0050EC"/>
<stop offset="1" stop-color="#39C7EC"/>
</linearGradient>
<linearGradient id="paint4_linear_63_59" x1="46.8841" y1="44.7216" x2="74.6518" y2="61.1583" gradientUnits="userSpaceOnUse">
<stop stop-color="#0050EC"/>
<stop offset="1" stop-color="#39C7EC"/>
</linearGradient>
<clipPath id="clip0_63_59">
<rect width="31.4527" height="31.4898" fill="white" transform="translate(0.608887 26.0762) rotate(-11.2554)"/>
</clipPath>
<clipPath id="clip1_63_59">
<rect width="31.4899" height="31.4898" fill="white" transform="translate(33.4595 0.608398) rotate(10.1488)"/>
</clipPath>
<clipPath id="clip2_63_59">
<rect width="31.4898" height="31.4898" fill="white" transform="translate(34.9648 30.5811) rotate(9.73501)"/>
</clipPath>
</defs>
</svg>
